<svg width="1665" height="1638" viewBox="0 0 1665 1638" fill="none" xmlns="http://www.w3.org/2000/svg">
<path fill-rule="evenodd" clip-rule="evenodd" d="M815.5 0.199996C817.7 0.0999964 838.2 0.499996 861 0.999996C883.8 1.6 909.2 2.5 917.5 3C930.9 3.9 933.2 4.4 938.7 7C943.4 9.2 945.9 11.2 948.4 14.7C950.3 17.4 953 22.3 954.4 25.7C955.8 29.2 958.3 37.3 960 43.7C961.6 50.2 963.8 60 964.9 65.5C966 71 968.8 86.3 971 99.5C973.3 112.7 976.3 128.2 977.8 134C979.3 140 981.3 145.5 982.5 146.8C983.6 148 987.6 150.1 991.5 151.4C995.3 152.7 1005.2 155.2 1013.5 156.9C1021.7 158.7 1036.1 162.1 1045.5 164.5C1054.8 166.9 1068.3 170.8 1075.5 173.1C1082.6 175.4 1098.8 181.5 1111.5 186.7C1124.1 191.9 1138.8 198.4 1144 201.1C1149.2 203.7 1156.2 208.2 1159.5 211C1164 214.8 1166.3 216 1168.7 216C1170.5 216 1175.7 217.4 1180.2 219.1C1184.8 220.8 1191.6 223.3 1195.5 224.7C1201 226.7 1203.7 227.1 1208 226.7C1211 226.4 1215.7 225.2 1218.5 224C1221.2 222.8 1231.6 216.5 1241.5 210C1251.4 203.5 1262.4 196.8 1266 195C1269.6 193.2 1274.5 191.5 1277 191.2C1280.3 190.8 1282.3 191.1 1284.2 192.3C1285.8 193.3 1287.5 195.6 1288.2 197.7C1289 200 1289.4 206.1 1289.4 213C1289.3 219.3 1288.5 228.8 1287.6 234C1286.7 239.2 1284.3 248.2 1282.4 254C1280.4 259.8 1276.4 269.2 1273.4 275C1270.4 280.8 1265 289.7 1261.2 294.9C1257.4 300.2 1249.5 309.1 1242.9 315.4C1236.6 321.5 1226 330.3 1219.5 335C1212.9 339.7 1203.4 345.6 1198.3 348.2C1193.2 350.9 1188 353 1186.7 353C1185.5 353 1180.4 350.7 1175.5 347.8C1170.5 345 1158.4 337.4 1148.5 331C1138.6 324.6 1127.5 317.4 1123.7 315.1C1120 312.9 1116.8 311 1116.5 311C1116.2 311 1102.6 304.9 1086.2 297.4C1069.9 289.9 1051.5 281.8 1045.5 279.4C1039.4 276.9 1029.1 273.2 1022.5 271.1C1015.9 269 1002.6 265.4 993 263.2C983.4 261 965.1 257.1 952.5 254.6C939.8 252.2 925.9 249.7 921.5 249.1C917.1 248.5 905.8 247.6 896.5 247C887.1 246.4 860.4 245.9 837 245.9C813.6 245.9 787.1 246.4 778 247C768.9 247.6 755.4 248.8 748 249.6C740.6 250.4 728.4 252.2 721 253.6C713.6 255 702.1 257.5 695.5 259.1C688.9 260.8 676.1 264.4 667 267.1C657.9 269.9 644 274.7 636 277.7C628 280.8 613.8 286.5 604.5 290.5C595.1 294.5 578.3 302 567 307.3C555.7 312.5 540.9 319.6 534 323C527.1 326.4 517.4 331.5 512.5 334.3C507.5 337.1 500.1 341.6 496 344.2C491.9 346.9 486.2 349.8 483.5 350.6C480.7 351.4 477.4 352 476 352C474.6 352 471.5 351 469 349.9C466.5 348.8 462.8 346.3 460.7 344.4C458.7 342.5 454.9 340.1 452.2 338.9C448.8 337.4 443.7 333 433.9 323.2C426.5 315.7 415.8 304.1 410.1 297.5C404.4 290.9 396.8 281.4 393 276.5C389.3 271.5 385.4 265.7 384.2 263.5C383.1 261.3 381.1 255.9 379.7 251.5C378.3 247.1 376.4 238.3 375.5 232C374.4 224.7 373.9 217.6 374.3 212.5C374.6 208.1 375.5 202.8 376.4 200.7C377.3 198.6 379.8 195.7 382.2 194C384.6 192.3 387.5 191 388.7 191C390 191 394.7 192.9 399.2 195.2C403.8 197.6 413.6 203.5 421 208.4C428.4 213.3 436.7 219.4 444.2 226.5L453.4 225.9C460 225.4 465.5 224.3 473.5 221.6C479.5 219.6 495.1 212.8 508 206.5C520.9 200.3 537.6 192.7 545 189.6C552.4 186.6 565.9 181.6 575 178.5C584.1 175.4 604.5 169.1 620.5 164.5C636.4 159.9 654.7 154.3 661 152.1C667.3 149.9 674.6 147.2 677.2 146.1C680.8 144.5 682.4 143.1 683.5 140.5C684.3 138.6 686.3 131.3 688 124.2C689.6 117.2 693 100.5 695.5 87C698.1 73.5 701 58.4 702.1 53.5C703.2 48.5 705.2 40.7 706.6 36C708.1 31.3 710.5 24.8 712.2 21.5C713.8 18.2 716.8 13.8 718.8 11.6C720.8 9.5 724.3 6.9 726.5 5.9C728.7 4.9 735.1 3.6 741 3C746.8 2.4 765 1.6 781.5 1.1C798 0.699996 813.3 0.199996 815.5 0.199996ZM306.2 113C307.2 113 308.5 114.2 309.2 115.7C310.2 118 310.1 121.2 308.7 132.5C307.8 140.2 306.5 155.3 305.9 166C305.3 177.1 305.1 195.4 305.4 208.5C305.8 221.1 306.5 236.9 307.1 243.5C307.6 250.1 308.7 259.3 309.6 264C310.5 268.7 313.1 277.2 315.4 283C317.8 288.8 321.7 297.3 324 302C326.4 306.7 330.5 314.1 333.3 318.5C336 322.9 340.3 329.2 342.9 332.5C345.4 335.8 351.8 343 357 348.5C362.3 354 367.8 360.1 369.3 362C370.7 363.9 372 366.5 372 367.7C372 369 373.3 371.3 375 373C376.6 374.6 378.4 376 379 376C379.667 376 379.667 375.333 379 374C378.4 372.9 378 371.8 378 371.5C378 371.2 378.6 371 379.2 371C379.9 371 386.6 375 394 379.9C401.4 384.8 410.9 390.6 415 392.8C419.1 395.1 427.4 398.9 433.5 401.3C439.5 403.7 449.2 407.1 455 408.8C460.8 410.4 470.7 412.9 477 414.3C483.3 415.8 494.6 417.8 502 418.9C509.4 419.9 525.4 421.6 559.5 424.4L574.5 415.3C582.7 410.4 593.1 404.5 597.5 402.2C601.9 400 609.5 396.5 614.5 394.5C619.4 392.4 628 389.3 633.5 387.5C639 385.7 648.4 382.1 654.5 379.6C660.5 377 671.6 371.4 679 367.2C686.4 363 696.8 357.7 702 355.3C707.2 353 714.2 350.4 717.5 349.5C720.8 348.7 727.3 347.5 732 346.9C737.1 346.2 748.4 346 760 346.2C774.5 346.6 782.2 347.3 790 348.9C795.8 350.1 807 351.5 815 352.1C823.2 352.7 836.3 352.9 845 352.5C853.5 352.1 864.4 351.2 869.2 350.4C874.1 349.6 882.2 348.3 887.2 347.5C892.7 346.6 903.3 345.9 913 345.9C922.1 345.8 933.3 346.3 938 347C942.7 347.6 949.2 349.1 952.5 350.1C955.8 351.2 963.2 354.4 969 357.1C974.8 359.9 985.6 365.6 993 369.8C1000.4 373.9 1011.9 379.9 1018.5 383.1C1025.1 386.2 1035.7 390.6 1042 393C1048.3 395.3 1059.8 400.3 1067.5 403.9C1075.2 407.6 1085.3 413.3 1098.5 422.5L1113.5 422.4C1121.7 422.4 1135 421.5 1143 420.6C1151 419.6 1162.7 418 1169 416.9C1175.3 415.9 1185.9 413.7 1192.5 412.1C1199.1 410.5 1209.4 407.5 1215.5 405.5C1221.5 403.5 1231.2 399.7 1237 397.1C1242.8 394.5 1252 389.8 1257.5 386.5C1263 383.3 1272 377.2 1277.5 373.1C1283 368.9 1292.9 360.1 1299.5 353.5C1306.1 346.9 1315.4 336.7 1320.1 331C1324.8 325.2 1331.1 316.9 1334 312.5C1337 308.1 1341.5 300 1344.1 294.5C1346.7 289 1350 280.4 1351.4 275.5C1352.8 270.5 1354.6 262.4 1355.5 257.5C1356.3 252.5 1357.4 243.3 1358 237C1358.5 230.7 1359 214 1359 200C1359 186 1358.5 166.8 1358 157.5C1357.4 148.1 1356.3 135.4 1355.5 129.2C1354.4 121.4 1354.3 117.2 1355 115.5C1355.5 114.1 1356.6 113 1357.2 113C1357.9 113 1360.3 114.2 1362.5 115.8C1364.7 117.4 1371.7 124 1378 130.6C1387.3 140.2 1390.2 144 1393.1 150C1395.1 154.1 1400.9 163.8 1405.9 171.5C1411 179.2 1417.8 190.9 1421 197.5C1424.3 204.1 1428.8 215 1431 221.7C1433.2 228.5 1436.1 240 1437.4 247.2C1438.8 254.5 1440.3 266.2 1440.9 273.2C1441.5 280.3 1442 294.4 1442 304.7C1442 315.1 1441.5 328.9 1441 335.5C1440.4 342.1 1439.2 351.8 1438.4 357C1437.6 362.2 1435.4 372.3 1433.5 379.5C1431.6 386.6 1428.6 396.5 1426.7 401.5C1424.8 406.4 1421.5 414.3 1419.3 419C1417.2 423.7 1412.8 432 1409.6 437.5C1406.3 443 1400.8 451.8 1397.1 457C1393.5 462.2 1387 471 1382.6 476.5C1378.2 482 1369.6 491.6 1363.6 497.9C1357.5 504.1 1348.4 512.7 1343.5 516.9C1338.5 521.2 1330.9 527.3 1326.5 530.6C1322.1 533.9 1315.1 538.9 1311 541.7C1306.9 544.5 1298.3 549.9 1292 553.7C1285.7 557.5 1275.3 563.4 1269 566.7C1262.7 570.1 1252.5 575 1246.5 577.5C1240.4 580.1 1229 584.4 1221 587C1213 589.6 1199.8 593.5 1191.5 595.6C1183.3 597.8 1175.6 600.2 1174.5 601.1C1172.5 602.8 1172.5 602.8 1175.1 606.6C1176.6 608.8 1178.5 612.6 1179.4 615.2C1180.3 617.9 1181 621.5 1181 623.2C1181 625 1182.2 629.2 1183.5 632.5C1184.9 635.8 1188.4 641.5 1191.3 645.3C1194.1 649 1196.8 652 1197.2 652C1197.7 652 1206.7 646.7 1217.2 640.2C1227.8 633.7 1241.7 625.4 1248 621.8C1254.3 618.2 1264.4 612.8 1270.5 609.7C1276.5 606.7 1285.5 602.8 1290.5 601C1295.4 599.3 1304 597 1309.5 595.9C1315.2 594.8 1326.2 593.7 1335 593.3C1344 593 1355.9 593.2 1363.5 593.9C1370.6 594.6 1382 596.2 1388.7 597.5C1395.5 598.9 1406.5 601.8 1413.2 604C1420 606.2 1430.4 610.4 1436.5 613.3C1442.5 616.3 1450.6 620.5 1454.5 622.7C1458.3 624.9 1466 630.1 1471.5 634.2C1477 638.3 1485.1 645 1489.4 649.1C1493.8 653.2 1500.9 660.5 1505.2 665.5C1510.3 671.3 1514.6 677.5 1517.3 682.9C1521.1 690.5 1521.5 692.1 1521.5 698.4C1521.4 704.1 1520.9 706.7 1518.6 711.5C1516.3 716.3 1512.1 721 1498.1 735.1C1488.4 744.7 1473.7 758.2 1465.5 765.1C1457.2 771.9 1446 781 1440.5 785.1C1435 789.3 1426 795.6 1420.5 799.2C1415 802.8 1406 808.3 1400.5 811.3C1395 814.3 1384.3 819.6 1376.7 822.9C1369.2 826.3 1357.5 830.8 1350.7 833C1344 835.3 1332.9 838.3 1326 839.7C1316.4 841.7 1310.4 842.3 1300.5 842.4C1289.5 842.4 1286.6 842.1 1282 840.3C1279 839.1 1270.2 836 1262.5 833.2C1254.8 830.5 1246.2 827.2 1243.5 825.8C1240.7 824.4 1234.2 820.6 1229 817.5C1223.8 814.3 1214.8 808.6 1209 804.7C1203.2 800.8 1193.1 793.6 1186.5 788.5C1179.9 783.5 1172.4 777.7 1169.7 775.7C1167.1 773.7 1164 772 1162.7 772C1161.5 771.9 1159.6 772.9 1158.5 774.1C1157.4 775.3 1155.9 779 1155.2 782.4C1154.5 785.8 1153.6 802.6 1153 821C1152.5 838.9 1151.2 864.3 1150 877.5C1148.9 890.7 1147.3 907.6 1146.4 915C1145.6 922.4 1144 934.6 1142.9 942C1141.8 949.4 1140.6 958.4 1140.3 962C1139.8 967.3 1140.1 969.4 1141.9 973.5C1143.1 976.2 1145.5 980.7 1147.3 983.5C1149 986.2 1152.5 991.2 1155 994.5C1157.5 997.8 1163.8 1004.9 1169 1010.4C1174.2 1015.8 1184.8 1026 1192.5 1032.9C1200.2 1039.9 1211.4 1049.8 1217.5 1055C1223.5 1060.2 1235.2 1069.8 1243.5 1076.4C1251.7 1083 1264.8 1093.1 1272.5 1098.8C1280.2 1104.6 1294.6 1114.6 1304.5 1121.2C1314.4 1127.7 1324.5 1133.8 1327 1134.7C1330.2 1135.8 1332.1 1136 1333.5 1135.3C1334.6 1134.8 1337.1 1132.3 1339.1 1129.9C1341.1 1127.5 1346 1120.3 1350 1114C1354 1107.7 1360.3 1096.9 1364.1 1090C1367.9 1083.1 1374.1 1070.3 1378 1061.5C1382 1052.7 1388 1037.8 1391.5 1028.5C1394.9 1019.1 1399.8 1004.7 1402.3 996.5C1404.8 988.2 1408.2 976.3 1409.9 970C1411.6 963.7 1414.5 951.3 1416.4 942.5C1418.3 933.7 1420.8 920.9 1421.9 914C1423.1 907.1 1424.9 894.7 1426 886.5C1427.6 875 1428.6 870.6 1430.4 867.5C1431.8 865.1 1436 861.2 1440.6 857.8C1445 854.7 1452.1 849.5 1456.5 846.4C1460.9 843.3 1468.8 837.4 1474 833.2C1479.2 829 1488.2 821.6 1494 816.6C1499.8 811.7 1515.1 797 1528 784.1C1541 771.1 1555.5 755.5 1560.4 749.5C1565.2 743.4 1571.1 735.3 1573.5 731.5C1575.9 727.6 1578.6 721.8 1579.5 718.5C1580.3 715.2 1581 709.3 1581 705.5C1581 701.6 1580.3 693.8 1579.4 688C1578.5 682.2 1577 674.8 1575.9 671.5C1574.9 668.2 1574 665.2 1574 664.7C1574 664.3 1575.7 664 1577.7 664C1579.8 664 1590.9 667.2 1602.5 671.2C1614 675.1 1626.9 679.6 1631 681.2C1635.1 682.9 1640.3 685.1 1642.5 686.2C1644.7 687.4 1648.1 689.5 1650 691C1651.9 692.5 1654.9 696.4 1656.7 699.6C1658.5 703 1660.5 708.9 1661.4 713.5C1662.2 717.9 1663.4 728.7 1664 737.5C1664.5 746.3 1665 782.1 1665 817C1665 851.9 1664.7 887.4 1663.5 911.3L1656.5 918.5C1652 923.2 1647.4 926.8 1643.5 928.8C1640.2 930.4 1632.5 933.3 1626.5 935.3C1620.4 937.2 1606.5 940.9 1595.5 943.5C1584.5 946.1 1569.2 949.7 1561.5 951.6C1553.5 953.5 1544.5 956.4 1540.5 958.4C1536.2 960.5 1532.3 963.3 1530.3 965.6C1528.6 967.8 1526.4 971.3 1525.5 973.5C1524.5 975.7 1522.5 983.3 1521 990.5C1519.5 997.6 1516.8 1008.2 1515.2 1014C1513.5 1019.8 1509.6 1031.9 1506.5 1041C1503.4 1050.1 1493.9 1074.8 1485.5 1096C1477 1117.2 1468.9 1138.5 1467.5 1143.5C1466 1148.4 1464.6 1155.9 1464.3 1160C1463.8 1167.3 1463.9 1167.7 1467.9 1175.2C1470.2 1179.5 1472 1183.8 1472 1184.7C1471.9 1185.7 1474.6 1190.5 1477.8 1195.5C1481 1200.4 1485.7 1206.8 1488.1 1209.6C1490.5 1212.5 1495.6 1219.9 1499.3 1226.1C1503 1232.4 1508.7 1242.6 1511.8 1248.9C1517.4 1260 1517.5 1260.5 1517.5 1268.5C1517.5 1276.7 1517.5 1276.8 1512.8 1283.6C1510.2 1287.4 1504.4 1294.8 1500 1300C1495.5 1305.2 1481.4 1320.5 1468.6 1334C1455.8 1347.5 1433.2 1371.5 1418.2 1387.5C1403.3 1403.4 1388.1 1419.1 1384.3 1422.4C1380.6 1425.6 1374.6 1429.6 1371 1431.3C1365.7 1433.7 1363.6 1434.2 1359.5 1433.9C1356.7 1433.6 1351.6 1432 1348 1430.4C1344.4 1428.7 1335.9 1423.8 1329 1419.6C1322.1 1415.3 1311.3 1408.1 1305 1403.7C1298.7 1399.3 1290.2 1393 1286.2 1389.8C1281.9 1386.3 1277.3 1383.6 1274.7 1382.9C1272.4 1382.3 1268.2 1382.1 1265.5 1382.4C1262.7 1382.7 1257.8 1383.9 1254.5 1385C1251.2 1386.1 1244.2 1389.1 1239 1391.8C1233.8 1394.4 1220.5 1402 1209.5 1408.7C1198.5 1415.3 1181.8 1424.9 1172.5 1430C1163.1 1435.2 1149.9 1442 1143 1445.3C1136.1 1448.5 1126.2 1453 1121 1455.2C1115.8 1457.4 1105.4 1461.4 1098 1464.2C1090.6 1466.9 1071.4 1472.9 1055.5 1477.5C1039.5 1482.1 1023.1 1487.1 1019 1488.6C1014.9 1490 1009 1492.5 1006 1494C1003 1495.5 999 1498.3 997.3 1500.1C994.8 1502.7 993.3 1505.9 991 1514C989.4 1519.8 986 1533.9 983.6 1545.5C981.1 1557 978.4 1569.6 977.5 1573.5C976.6 1577.3 974.5 1585.2 972.9 1591C971.2 1596.8 967.8 1605.8 965.4 1611C961.4 1619.3 959.8 1621.6 943.5 1637.2L842 1636.7C781.5 1636.4 736.5 1635.7 730.5 1635.1C723.6 1634.4 718.9 1633.3 715.2 1631.5C712.2 1630 708.6 1627.3 706.6 1624.7C704.8 1622.4 701.7 1617.3 699.8 1613.5C697.8 1609.6 695.1 1602.9 693.7 1598.5C692.3 1594.1 690.2 1587.1 689.1 1583C688 1578.9 685.2 1567.2 683 1557C680.8 1546.8 677.5 1533.5 675.9 1527.5C674.2 1521.4 671.4 1513.2 669.6 1509.1C667.3 1503.6 665.3 1500.6 662 1497.8C659.1 1495.3 653.8 1492.5 647.5 1490C642 1487.9 620.8 1480.5 600.5 1473.7C580.1 1466.8 557.2 1458.6 549.5 1455.4C541.8 1452.2 526.9 1445.4 516.5 1440.2C506 1435 494.3 1429 490.5 1426.7C486.6 1424.5 476.7 1418.4 468.5 1413.2C460.2 1407.9 446.3 1399.7 437.5 1394.8C428.7 1389.9 419 1385.2 416 1384.3C412.333 1383.23 408.333 1382.87 404 1383.2C400.3 1383.5 394.7 1384.9 391 1386.4C387.4 1387.8 380.9 1391.1 376.5 1393.7C372.1 1396.2 361.3 1402.9 352.5 1408.5C343.7 1414.1 333.3 1420.5 329.5 1422.7C325.6 1424.9 319.5 1427.8 315.7 1429.3C311.2 1431.1 307.1 1432 303.2 1432C298.8 1432 296.1 1431.3 291 1428.8C285.9 1426.3 281.6 1422.7 271 1412.1C263.5 1404.6 238.3 1378.5 215.1 1354C191.8 1329.5 168.4 1304.5 163.2 1298.5C158 1292.4 152.5 1285.6 150.9 1283.2C149.3 1280.9 147.4 1276.5 146.7 1273.5C145.8 1269.1 145.8 1266.8 146.7 1262.2C147.4 1259.1 149.7 1252.9 151.8 1248.5C153.9 1244.1 159.6 1234.2 164.5 1226.5C169.3 1218.8 176.8 1206.9 181 1200C185.2 1193.1 190.8 1183.4 193.2 1178.5C195.7 1173.5 198.5 1167 199.4 1164C200.3 1161 201 1157.1 201 1155.5C201 1153.8 198.8 1146 196.1 1138C193.4 1130 186.2 1111.6 180 1097C173.9 1082.4 166.6 1064.2 163.8 1056.5C161.1 1048.8 156 1033.3 152.5 1022C149 1010.7 144.3 994.9 142.1 986.7C139.8 978.6 136.9 969.9 135.6 967.2C134.3 964.6 132.1 961.5 130.8 960.4C129.6 959.2 126.7 957.3 124.5 956.2C122.3 955.1 117.8 953.5 114.5 952.7C111.2 951.8 97 948.6 83 945.6C69 942.5 52.5 938.7 46.5 937.1C40.4 935.5 31.9 932.8 27.5 931.1C23.1 929.5 17.5 926.8 15 925.1C12.5 923.5 9.19996 920.5 7.49996 918.4C5.89996 916.2 3.99996 912.9 3.39996 911C2.69996 909.1 1.69996 902.5 0.999958 896.5C0.0999582 888.5 -0.100042 863.7 0.299958 805.5C0.699958 740 0.999958 724 2.29996 717C3.09996 712.3 4.49996 706.5 5.39996 704C6.29996 701.5 8.19996 697.8 9.49996 695.7C10.9 693.7 14.8 690.2 18.2 688C22.6 685.1 29.5 682.3 41.5 678.5C50.8 675.5 65 671.1 87.5 664L86.7 672.3C86.3 676.8 85.2 686.8 84.4 694.5C83.1 705.6 83 709.6 83.9 714C84.5 717 86.1 721.7 87.4 724.5C88.6 727.2 93.1 734 97.3 739.5C101.4 745 109 754.2 114 760C119.1 765.8 130 777.7 138.4 786.4C146.7 795.2 160.2 808.6 168.5 816.3C176.7 824 188 834.1 193.5 838.7C199 843.3 208.2 850.3 214 854.3C219.7 858.3 227.3 864.2 230.8 867.5C234.4 870.8 238.4 875.7 239.7 878.5C241.8 882.5 242.5 886.4 243.6 898C244.4 906 245.4 914.7 245.9 917.5C246.4 920.2 249.4 934.2 252.5 948.5C255.5 962.8 259.7 980.6 261.6 988C263.6 995.4 267.6 1008.7 270.5 1017.5C273.4 1026.3 278.6 1040.5 282 1049C285.4 1057.5 292.2 1072.6 297 1082.5C301.8 1092.4 309.2 1106.6 313.5 1114C317.7 1121.4 324.9 1133.1 329.5 1140C334 1146.9 341.1 1157 345.2 1162.5C349.3 1168 356.6 1177.2 361.4 1183C366.2 1188.8 378.7 1202.7 389.3 1213.8C399.9 1225 417.9 1243.2 429.5 1254.3C441 1265.4 454.8 1278.2 460 1282.8C467.9 1289.6 469.6 1290.7 470.1 1289.3C470.5 1288.3 471.1 1273.5 471.5 1256.5C471.8 1239.4 472.5 1218.7 473.1 1210.5C473.6 1202.2 475 1188.1 476.1 1179C477.2 1169.9 479.3 1156.6 480.6 1149.5C482 1142.3 484.5 1131.1 486.1 1124.5C487.8 1117.9 490.7 1107.3 492.5 1101C494.4 1094.7 498.2 1080.7 501 1070C503.9 1059.3 506.8 1049.1 507.7 1047.5C508.5 1045.7 509.5 1044.9 509.9 1045.5C510.3 1046 511.3 1049.2 511.9 1052.5C512.6 1055.8 514.6 1062.8 516.2 1068C517.9 1073.2 521.5 1083.1 524.2 1090C526.9 1096.9 531.3 1107 534 1112.5C536.6 1118 543.6 1131.3 549.6 1142C555.6 1152.7 563.2 1166.8 566.5 1173.3C569.8 1179.8 575 1188.4 578 1192.5C581 1196.6 586.2 1202.2 589.5 1204.9C592.8 1207.6 595.8 1209.6 596.1 1209.2C596.5 1208.8 596.1 1202.2 595.4 1194.5C594.6 1186.8 593.1 1175.5 591.9 1169.5C590.8 1163.4 588.3 1152.2 586.4 1144.5C584.4 1136.8 580.7 1123.3 578 1114.5C575.3 1105.7 569.3 1087.2 564.5 1073.5C559.7 1059.7 552.3 1038.1 548 1025.5C543.7 1012.8 538.2 995.1 535.6 986C533.1 976.9 529.7 963.4 528.1 956C526.4 948.6 523.9 936 522.5 928C521.2 920 518.9 904.7 517.6 894C516.2 883.3 514.4 865.9 513.6 855.5C512.7 845 511.3 827.7 510.5 817C509.6 806.3 508.2 792.3 507.4 786C506.6 779.7 505.7 773.9 505.5 773.2C505.2 772.5 504 772.2 502.2 772.6C500.7 772.9 496.1 775.2 492 777.8C487.9 780.4 478 787.1 470 792.9C462 798.6 450.3 806.8 444 811C437.7 815.2 428.2 821.2 423 824.2C417.8 827.3 409.9 831.4 405.5 833.3C401.1 835.3 394.8 837.6 391.5 838.4C388.2 839.3 380.5 840.3 374.5 840.6C368.4 840.9 357.4 840.7 350 840.1C342.6 839.4 331.3 837.8 325 836.3C318.7 834.9 309.7 832.4 305 830.8C300.3 829.2 291.5 825.5 285.5 822.6C279.4 819.7 268.6 813.6 261.5 809.1C254.3 804.6 245.2 799.2 241.1 797.2C237.1 795.2 230.1 790.7 225.6 787.4C221.2 784 211.6 776.1 204.5 769.9C197.3 763.6 183.4 750.4 173.4 740.5C163.5 730.6 153.3 719.8 150.8 716.5C148.3 713.2 145.2 708.5 143.9 706C142.1 702.5 141.6 699.9 141.6 694.5C141.5 688.5 142.1 686.5 145 680.5C146.9 676.6 151 670.3 154.1 666.5C157.2 662.6 163.5 656.3 168 652.5C172.5 648.6 179 643.4 182.4 640.9C185.7 638.3 193.2 633.2 199 629.5C204.8 625.8 216.5 619.4 225 615.1C233.5 610.9 246.1 605.5 253 603.3C259.9 601 270 598.2 275.5 597.1C281 596 290.7 594.6 297 593.9C304.1 593.2 315 592.9 325.5 593.3C335.1 593.7 345.7 594.6 350 595.5C354.1 596.4 362.2 599.1 368 601.5C373.8 603.8 385.9 609.3 395 613.5C404.1 617.7 420.3 625.6 431 631.1C441.7 636.5 454.3 643.2 459 646C465.1 649.7 467.9 650.9 469 650.2C469.8 649.7 473.5 640.8 477.1 630.4C480.7 620 484.6 609.6 485.8 607.2C487 604.9 488 602.5 488 602C488 601.4 486.6 600.3 485 599.5C483.3 598.7 478.7 597.1 474.7 596C470.8 594.9 464 593.6 459.7 593C455.5 592.5 447.6 590.4 442.2 588.4C436.9 586.4 427.1 582.2 420.5 579C413.9 575.7 404.2 570.3 399 566.9C393.8 563.6 387 559.7 384 558.3C381 556.9 374.7 553.3 370 550.3C365.3 547.2 358.6 542.5 355 539.7C351.4 537 347.5 533.7 346.2 532.4C344.8 530.8 342.3 529.8 339.2 529.3C336.2 528.9 332.4 527.2 328.5 524.6C325.2 522.3 316.6 514.7 309.4 507.5C302.2 500.4 292.5 490 287.8 484.5C283.1 479 275.3 469.3 270.6 463C265.8 456.7 260.2 448 258 443.7C255.8 439.5 254 434.6 254 433C254 430.8 252.9 429 250.1 426.2C247.9 424.2 244.7 419.3 243 415.5C241.2 411.6 238 403.5 235.8 397.5C233.6 391.4 230.1 380.6 228 373.5C225.9 366.3 223.2 354.6 221.9 347.5C219.8 335.9 219.6 331.4 219.5 306C219.5 283.3 219.9 275.2 221.3 266C222.3 259.7 224 250.6 225.1 245.7C226.1 240.9 228.4 232.6 230.1 227.2C231.8 221.9 235 213 237.2 207.5C239.4 202 243.6 192.8 246.5 187C249.5 181.2 255 171.8 258.9 166C262.8 160.2 270.2 150.1 275.5 143.5C280.8 136.9 287.6 128.6 290.8 125.1C293.9 121.5 298.3 117.4 300.4 115.8C302.6 114.3 305.2 113 306.2 113ZM1069.5 687.5C1066.7 688.5 1062.7 690.1 1060.5 691.2C1058.3 692.4 1053.2 695.6 1049.1 698.4C1045 701.2 1039.7 705.7 1037.2 708.5C1034.7 711.2 1030 717.5 1026.8 722.5C1023.6 727.4 1017.4 738.5 1013.1 747C1008.7 755.5 1002.9 767.9 1000.1 774.5C997.4 781.1 992.7 793.2 989.7 801.5C986.7 809.7 982.1 823.5 979.6 832C977.1 840.5 973.5 854 971.6 862C969.6 870 967.1 881.7 966 888C964.6 896 963.7 908.4 962.8 929C962 951.4 962 967.8 962.8 997C963.5 1018.2 964.5 1040 965.1 1045.5C965.7 1051 966.7 1056.6 967.2 1058L968.2 1060.5C970.2 1055.8 972.2 1043.2 973.9 1029.5C975.6 1015.7 978.6 990.8 980.5 974C982.4 957.2 985.4 935.2 987.1 925C988.8 914.8 991.3 902.7 992.6 898C993.9 893.3 997 885.4 999.4 880.5C1002.8 873.6 1005.2 870.2 1009.9 865.7C1013.9 862 1018.9 858.6 1024.2 856.1C1028.8 853.9 1037.2 850.5 1043 848.5C1048.8 846.4 1056.6 843.3 1060.5 841.6C1064.3 839.8 1070.9 836.2 1075 833.6C1079.1 830.9 1085 826.1 1088 823C1091 819.9 1094.6 815.1 1096 812.4C1098.2 808.1 1098.5 806.2 1098.5 796.9C1098.5 786.8 1098.4 786.1 1094.7 778.7C1091.9 772.9 1089.9 770.2 1086.7 768C1084.1 766.1 1081.3 765 1079.2 765C1077.5 765 1075.8 765.4 1075.5 766C1075.2 766.5 1076.6 768.6 1078.5 770.5C1081.6 773.6 1082 774.6 1082 779C1082 781.7 1081.1 786.4 1080 789.2C1078.9 792.2 1076.4 796.1 1074.3 798.1C1072.2 800.2 1067.8 803.1 1064.5 804.8C1061.2 806.4 1055.6 808.7 1052 809.8C1048.4 811 1042.8 812.4 1039.5 813C1036.2 813.5 1030.8 814 1027.5 814C1024.2 813.9 1018.8 813.3 1015.5 812.5C1012.2 811.6 1009.4 810.9 1009.3 810.7C1009.1 810.6 1011.2 804.9 1013.9 798C1016.5 791.1 1020.2 782.6 1022 779C1023.8 775.4 1027.3 769.3 1029.8 765.5C1032.2 761.6 1036.4 756.1 1038.9 753.1C1041.4 750.1 1046.9 745 1051 741.7C1055.1 738.4 1061.9 734.1 1066 732C1070.1 729.9 1077.5 726.8 1082.5 725.1C1087.4 723.4 1093 720.7 1094.9 719.2C1096.7 717.7 1099.2 715.2 1100.4 713.7C1101.8 711.8 1102.6 708.9 1102.9 705.2C1103.2 700.6 1102.8 698.4 1100.6 693.7C1098.9 690.1 1097 687.5 1095.2 686.6C1093.7 685.8 1090.5 685 1088 684.7C1085.5 684.4 1081.5 684.5 1079 685C1076.5 685.4 1072.2 686.6 1069.5 687.5ZM571.7 690.5C569.6 691.8 566.8 694.4 565.4 696.2C564.1 698 562.6 701.3 562 703.5C561.5 705.9 561.4 708.9 562 711C562.5 712.9 564.1 715.8 565.7 717.4C567.2 719 575.7 723.7 584.5 727.9C593.3 732.2 604.1 737.9 608.5 740.7C612.9 743.5 619.5 748.9 623.1 752.7C626.7 756.4 632.2 763.3 635.2 768C638.3 772.7 642.2 779.4 644 783C645.8 786.6 648.1 792 649.2 795C650.2 798 651 802.1 651 804C651.1 806.8 650.5 807.7 648.3 808.8C646.8 809.6 641.9 810.6 637.5 811.1C632.5 811.6 625.5 811.6 619 811C613.2 810.5 606 809.3 603 808.4C599.2 807.2 596 805.3 592.6 802.1C589.9 799.6 586.9 795.7 585.9 793.5C584.9 791.3 584 787.4 584 784.7C584 781.4 584.9 778.2 587 774C588.6 770.7 590 767.5 590 767C590 766.4 589.2 766 588.2 766C587.3 766 584.4 767.7 581.9 769.8C579.3 771.8 576.1 774.8 574.7 776.5C573.3 778.1 571.4 781.3 570.5 783.5C569.5 785.7 568.4 790 568 793C567.6 796 567.7 801.2 568.2 804.5C568.7 807.8 570.6 813.1 572.3 816.4C574.1 819.6 577.9 824.4 580.7 827.1C583.6 829.8 586.7 832 587.5 832C588.3 832 590.9 833.6 593.2 835.6C596.2 838.1 600.1 839.9 606 841.7C610.7 843.1 617.4 845.1 621 846.2C624.6 847.3 630.6 849.9 634.5 851.8C639.2 854.2 643.9 857.8 649 862.9C654.7 868.6 657.7 872.7 661.1 879.5C663.7 884.4 666.9 892.1 668.3 896.5C669.7 900.9 671.5 907 672.4 910C673.2 913 675 920.9 676.4 927.5C677.8 934.1 679.4 944.9 680 951.5C680.6 958.1 681.5 968 682.1 973.5C682.7 979 684.2 989.8 685.5 997.5C686.9 1005.2 688.6 1016.9 689.4 1023.5C690.2 1030.1 691.3 1041.5 691.7 1048.8C692.1 1056 692.7 1062 693 1062C693.3 1062 694.1 1060.6 694.8 1058.8C695.4 1057 696.5 1051.2 697 1046C697.6 1040.8 698.4 1018.5 698.9 996.5C699.5 973 699.5 942.1 699 921.5C698.5 902.2 697.6 883.3 697 879.5C696.4 875.6 695.7 871.4 695.4 870C695 868.6 692.6 859.8 689.8 850.5C687.1 841.1 682 824.3 678.4 813C674.8 801.7 669.6 786.6 666.9 779.5C663.6 770.7 657.9 759.3 649.6 744.5C642.8 732.4 635.5 719.6 633.3 716C631.2 712.5 626 706.1 621.7 701.8C615.8 695.8 612 693 605.7 689.9C599.1 686.6 596.1 685.8 590.5 685.4C585.7 685.1 582.2 685.4 579.5 686.5C577.3 687.3 573.8 689.1 571.7 690.5ZM1090.5 1123C1087.1 1132.6 1082.8 1145.4 1081.1 1151.5C1079.4 1157.5 1076.9 1167.9 1075.5 1174.5C1074.1 1181.1 1072.7 1190 1072.3 1194.3C1071.7 1200.2 1071.8 1202 1072.7 1202C1073.4 1202 1074.7 1200.3 1075.6 1198.2C1076.4 1196.2 1078.7 1190 1080.6 1184.5C1082.6 1179 1086.6 1165.9 1089.6 1155.5C1092.7 1145 1096.7 1128.6 1098.6 1119C1100.5 1109.4 1102 1100.4 1101.8 1099C1101.5 1096.7 1101.3 1096.9 1099.1 1101C1097.8 1103.5 1093.9 1113.4 1090.5 1123ZM700.5 1122.4C696.1 1124.5 689.6 1128.1 686 1130.5C682.4 1132.8 676.9 1137.4 673.6 1140.6C670.4 1143.9 666.9 1148.2 665.9 1150.2C664.8 1152.3 662.5 1159.3 660.6 1165.7C658.7 1172.2 655.6 1185.4 653.7 1195C651.7 1204.6 648.8 1220.8 647.1 1231C645.5 1241.2 643.3 1254.7 642.4 1261C641.2 1268.4 640.6 1278.4 640.6 1289C640.6 1301.4 641 1307.2 642.3 1312.2C643.2 1316 645.2 1321.6 646.7 1324.7C648.3 1327.8 651.5 1332.5 654 1335C656.5 1337.5 661.6 1341.1 665.5 1343C671.7 1346 673.3 1346.4 680 1346.3C684.1 1346.2 691.8 1345.2 697 1344.1C702.2 1343 714.4 1340.3 724 1338.1C733.6 1335.9 746.7 1333.2 753 1332.1C759.3 1331 771.7 1329.6 780.5 1329C790.7 1328.2 813.5 1328 843.5 1328.3C880.1 1328.6 892.6 1329.1 900 1330.3C905.2 1331.2 920.3 1334.6 933.5 1337.9C946.7 1341.1 962.3 1344.5 968.2 1345.4C976.4 1346.6 980.5 1346.8 985.2 1346C988.8 1345.5 995 1343.3 999.7 1341C1005.7 1338.1 1009 1335.8 1011.4 1332.7C1013.2 1330.4 1015.4 1327.1 1016.3 1325.5C1017.1 1323.8 1018.6 1319.8 1019.5 1316.5C1020.6 1312.6 1021.3 1305 1021.7 1294.5C1022 1283.5 1021.7 1273 1020.6 1261C1019.7 1251.4 1017.8 1235.6 1016.5 1226C1015.1 1216.4 1013.1 1203.8 1011.9 1198C1010.8 1192.2 1009 1184.3 1007.9 1180.5C1006.8 1176.6 1004.8 1170.6 1003.5 1167C1002.1 1163.4 999.4 1157.8 997.4 1154.5C995.4 1151.2 992.4 1146.9 990.7 1145C989 1143.1 984.7 1139.1 981.1 1136.2C977.5 1133.3 970 1128.7 964.5 1126C959 1123.4 951.1 1120.1 947 1118.8C940.6 1116.8 937.5 1116.5 926 1116.6C915 1116.7 909 1117.4 893.5 1120.3C883 1122.3 869.1 1124.6 862.5 1125.4C855.9 1126.2 845.1 1127.2 838.5 1127.5C831.9 1127.9 819.7 1127.6 811.5 1127C803.2 1126.4 790.6 1124.8 783.5 1123.4C776.3 1122 765.8 1120 760 1118.9C753.9 1117.8 743 1116.8 734 1116.5C723.2 1116.2 717 1116.4 713.5 1117.3C710.7 1118 704.9 1120.3 700.5 1122.4ZM780.5 1368.5C773.3 1369.4 761.4 1371.3 754 1372.6C746.6 1374 737.1 1376 733 1377C728.9 1378.1 724.5 1379.7 723.2 1380.5C722 1381.3 721 1382.6 721 1383.2C720.9 1383.9 722 1385.8 723.2 1387.4C724.5 1389 729.5 1393 734.5 1396.3C739.4 1399.5 746.4 1403.7 750 1405.5C753.6 1407.3 760.1 1410 764.5 1411.4C768.9 1412.9 777.4 1415 783.5 1416.2C793.1 1418 799.8 1418.3 835.5 1418.7L876.5 1419.2C903.6 1405.9 915.5 1399.7 920.4 1396.8C925.3 1393.9 931.7 1389.4 934.7 1386.7C937.6 1384.1 940 1381.5 940 1381C940 1380.4 938.4 1379.3 936.5 1378.5C934.6 1377.7 923.7 1375.4 912.2 1373.5C900.8 1371.6 886.1 1369.4 879.5 1368.5C872.9 1367.7 860.3 1366.6 851.5 1366C842.7 1365.5 831.7 1365.1 827 1365.2C822.3 1365.2 812.9 1365.6 806 1366.1C799.1 1366.5 787.6 1367.6 780.5 1368.5ZM1503 374C1503.3 374 1505 374.9 1506.7 376C1508.5 377.1 1511.6 380.4 1513.5 383.2C1515.4 386.1 1517.2 390.3 1517.6 392.5C1518.2 395.8 1517.7 397.8 1515.1 403.5C1512.3 409.7 1510 412.4 1495.1 427C1484.5 437.5 1476.7 446.1 1473.8 450.5C1471.3 454.3 1466.9 462 1458.7 477.5L1465.7 498.5C1469.6 510 1473.7 522 1474.8 525C1475.9 528 1477.1 532.1 1477.4 534C1477.7 535.9 1479.2 538.8 1480.8 540.5C1482.3 542.1 1486 547.5 1488.9 552.5C1491.8 557.4 1496.4 565.9 1499.1 571.2C1501.8 576.6 1504 581.4 1504 582C1504 582.5 1503.2 582.7 1502.2 582.3C1501.3 582 1495.5 578.8 1489.5 575.4C1483.4 571.9 1473.5 567 1467.5 564.4C1461.4 561.8 1444.8 555.5 1430.5 550.5C1414 544.7 1404.4 540.9 1404.2 540C1404.1 539.2 1408.7 533.1 1414.6 526.5C1420.4 519.9 1428 510.9 1431.5 506.5C1434.9 502.1 1440.4 494.4 1443.7 489.5C1447 484.5 1452.3 476.2 1455.5 471C1458.7 465.8 1464.3 455.6 1467.9 448.5C1471.6 441.3 1476.3 431.4 1478.4 426.5C1480.4 421.5 1484.6 410.3 1487.7 401.5C1490.7 392.7 1494.2 383.5 1495.4 381C1496.6 378.5 1498.7 375.9 1500.1 375.3C1501.4 374.6 1502.7 374 1503 374ZM159.2 375C160.7 375 162.9 375.9 164 377C165.1 378.1 167 380.9 168.1 383.2C169.3 385.6 172.7 394.9 175.7 404C178.7 413.2 184.1 426.7 187.9 434.5C191.6 442.2 202.7 461.8 212.4 478C222.2 494.2 232.3 510 234.8 513C237.3 516 244.4 523.8 250.5 530.3C256.5 536.8 261.3 542.2 261 542.4C260.7 542.6 255.1 544.2 248.5 546C241.9 547.8 231.1 551.2 224.5 553.7C217.9 556.2 200.9 563.8 186.7 570.6C172.6 577.4 160.7 583 160.2 583C159.8 582.9 166.1 567.3 174.1 548.2C182.2 529.1 191 507.4 193.8 500C196.6 492.6 199.4 484.2 200.1 481.5C201.1 477.5 201.1 475.3 200 470.5C199.3 467.2 197.2 461.6 195.3 458C193.4 454.4 189.4 448.1 186.3 444C183.2 439.9 173.3 429.1 164.2 420C155.1 410.9 147.1 402 146.3 400.2C145.6 398.5 145 395.9 145 394.5C145 393.1 146.2 389.6 147.6 386.7C149 383.9 151.5 380 153.3 378.2C155.3 376.1 157.3 375 159.2 375ZM941.4 1164C942 1163.9 945.2 1165.7 948.5 1167.9C951.8 1170 956.6 1174.1 959.2 1176.9C961.9 1179.7 964.8 1183.7 965.7 1185.7C967.2 1188.8 967.5 1192.3 967.5 1205.5C967.4 1217.7 967 1223 965.6 1228C964.6 1231.6 962.5 1237.3 960.9 1240.7C959.3 1244.3 955.4 1249.7 952.1 1253.2C948.9 1256.7 944.1 1260.7 941.4 1262.2C938.7 1263.7 933.3 1265.6 929.5 1266.5C925 1267.6 920 1268 915.5 1267.8C911.1 1267.5 906.5 1266.4 903.1 1264.9C900.1 1263.6 896.3 1260.9 894.6 1258.9C892.9 1256.9 890.9 1253.5 890.3 1251.4C889.6 1249.3 889 1243.9 889 1239.5C889 1232.2 889.3 1230.8 892.7 1224C895.9 1217.7 899.2 1213.7 913.7 1198.7C923.2 1189 932.6 1178.6 934.5 1175.7C936.4 1172.9 937.9 1169.6 937.8 1168.4C937.7 1167.3 938.2 1165.9 939 1165.2C939.8 1164.5 940.9 1164 941.4 1164ZM722.2 1171C722.7 1171 727.3 1175.4 732.7 1180.7C738 1186.1 745.7 1194.3 749.8 1199C753.9 1203.7 757.6 1208.5 758.1 1209.7C758.6 1211 760.1 1212.4 761.5 1213C762.9 1213.5 765.1 1215.5 766.4 1217.2C767.7 1219 769.8 1222.5 771.1 1225C772.6 1228.1 773.5 1231.9 773.8 1237C774.1 1243 773.8 1245.7 772 1250.5C770.5 1254.5 768.2 1258 765.1 1261.1C761.5 1264.6 759.1 1266 754 1267.4C749.3 1268.7 745.4 1269.1 740 1268.8C734.6 1268.4 730.7 1267.5 726 1265.4C722.2 1263.7 717.1 1260.2 713.7 1257C710.4 1254 706.3 1249 704.5 1246C702.7 1243 699.9 1236.9 698.4 1232.5C695.9 1225.4 695.6 1223 695.6 1211.5C695.5 1199.9 695.8 1197.8 698 1192C699.4 1188.5 702.3 1183.5 704.6 1181C707.4 1177.9 710.7 1175.6 715.1 1173.8C718.6 1172.3 721.8 1171.1 722.2 1171Z" fill="white"/>
</svg>
